<?xml version="1.0" encoding="utf-8"?>
<svg version="1.1" id="Lumina_Logo_Final_Big" xmlns="http://www.w3.org/2000/svg" xmlns:xlink="http://www.w3.org/1999/xlink" x="0px" y="0px"
     width="306px" height="344.35px" viewBox="0 0 306 344.35" xml:space="preserve">

<path fill="#4CAF50" d="M302.107,258.262c2.401-4.159,3.893-8.845,3.893-13.053V99.14c0-4.208-1.49-8.893-3.892-13.052L153,172.175
    L302.107,258.262z"/>
    <path fill="#2E7D32" d="M166.25,341.193l126.5-73.034c3.644-2.104,6.956-5.737,9.357-9.897L153,172.175L3.893,258.263
    c2.401,4.159,5.714,7.793,9.357,9.896l126.5,73.034C147.037,345.401,158.963,345.401,166.25,341.193z"/>
    <path fill="#81C784" d="M302.108,86.087c-2.402-4.16-5.715-7.793-9.358-9.897L166.25,3.156c-7.287-4.208-19.213-4.208-26.5,0
    L13.25,76.19C5.962,80.397,0,90.725,0,99.14v146.069c0,4.208,1.491,8.894,3.893,13.053L153,172.175L302.108,86.087z"/>

    <g transform="translate(-38, -55) scale(1.25)">
    <path fill="none" stroke="#FFFFFF" stroke-width="8" stroke-linecap="round" stroke-linejoin="round" d="M153,110
        c-35,0-60,25-60,55c0,20,15,35,30,45v30h60v-30c15-10,30-25,30-45C213,135,188,110,153,110z"/>

        <path fill="none" stroke="#FFFFFF" stroke-width="8" stroke-linecap="round" d="M133,250h40 M138,265h30 M148,280h10"/>

        <polyline fill="none" stroke="#FFFFFF" stroke-width="12" stroke-linecap="round" stroke-linejoin="round" points="
        145,145
        145,200
        175,200 "/>
</g>
</svg>